<?xml version="1.0" encoding="UTF-8" standalone="no"?>
<!-- Generator: Adobe Illustrator 16.0.4, SVG Export Plug-In . SVG Version: 6.00 Build 0)  -->

<svg
   xmlns:dc="http://purl.org/dc/elements/1.1/"
   xmlns:cc="http://creativecommons.org/ns#"
   xmlns:rdf="http://www.w3.org/1999/02/22-rdf-syntax-ns#"
   xmlns:svg="http://www.w3.org/2000/svg"
   xmlns="http://www.w3.org/2000/svg"
   xmlns:sodipodi="http://sodipodi.sourceforge.net/DTD/sodipodi-0.dtd"
   xmlns:inkscape="http://www.inkscape.org/namespaces/inkscape"
   version="1.1"
   id="Layer_1"
   x="0px"
   y="0px"
   width="46.113075"
   height="84.302078"
   viewBox="0 0 46.113073 84.302077"
   enable-background="new 0 0 1190.55 841.89"
   xml:space="preserve"
   inkscape:version="0.91 r13725"
   sodipodi:docname="meercat.svg"><metadata
     id="metadata13"><rdf:RDF><cc:Work
         rdf:about=""><dc:format>image/svg+xml</dc:format><dc:type
           rdf:resource="http://purl.org/dc/dcmitype/StillImage" /><dc:title></dc:title></cc:Work></rdf:RDF></metadata><defs
     id="defs11" /><sodipodi:namedview
     pagecolor="#ffffff"
     bordercolor="#666666"
     borderopacity="1"
     objecttolerance="10"
     gridtolerance="10"
     guidetolerance="10"
     inkscape:pageopacity="0"
     inkscape:pageshadow="2"
     inkscape:window-width="640"
     inkscape:window-height="480"
     id="namedview9"
     showgrid="false"
     fit-margin-top="0"
     fit-margin-left="0"
     fit-margin-right="0"
     fit-margin-bottom="0"
     inkscape:zoom="1.0415354"
     inkscape:cx="113.14671"
     inkscape:cy="21.523586"
     inkscape:window-x="0"
     inkscape:window-y="0"
     inkscape:window-maximized="0"
     inkscape:current-layer="Layer_1" /><g
     id="g3"
     transform="translate(-487.88752,-378.82777)"><path
       d="m 526.027,462.121 2.624,0.055 c 0,0 -3.425,-3.766 -3.714,-5.253 -0.282,-1.484 2.056,-4.509 2.46,-6.056 0.401,-1.529 1.766,-5.42 1.829,-9.301 0.053,-3.887 -0.282,-8.566 -0.745,-9.487 -0.457,-0.905 -0.913,-2.338 -0.913,-2.338 0,0 0.687,-1.829 0.749,-2.683 0.049,-0.859 0.108,-1.365 0.108,-1.365 0,0 0.916,0.051 1.021,0.684 0.118,0.619 0.693,1.832 0.693,1.832 0,0 0,-3.894 0,-5.947 0,-2.055 -0.118,-3.996 -0.519,-4.741 -0.394,-0.742 -1.655,-2.223 -1.655,-2.223 l 0.059,-1.776 c 0,0 3.139,2.404 3.254,3.023 0.112,0.634 -0.345,6.115 0.286,7.083 0.634,0.982 1.826,3.432 1.826,3.432 0,0 0.917,-10.106 0.345,-11.134 -0.568,-1.033 -2.056,-3.54 -3.087,-5.083 -1.027,-1.543 -2.453,-3.827 -2.508,-4.623 -0.056,-0.801 -0.056,-2.457 -0.341,-4.404 -0.296,-1.94 -0.516,-4.224 -1.091,-4.797 -0.568,-0.564 -2.798,-2.001 -3.194,-3.259 -0.401,-1.246 -0.631,-4.39 -0.115,-4.85 0.508,-0.456 3.714,-0.968 5.194,-1.312 1.484,-0.342 2.066,-0.52 2.46,-0.977 0.394,-0.447 1.257,-0.389 1.885,-0.965 0.626,-0.571 1.654,-1.834 0.626,-2.685 -1.031,-0.858 -2.173,-0.175 -3.369,-0.969 -1.198,-0.806 -1.714,-1.595 -2.516,-2 -0.797,-0.398 -2.337,-0.167 -2.912,-0.459 -0.568,-0.283 -2.167,-0.857 -3.766,-0.683 -1.599,0.17 -3.487,0.802 -4.567,2.336 -1.09,1.544 -1.484,5.882 -1.484,7.6 0,1.714 -0.396,4.8 -0.749,6.221 -0.338,1.437 -1.767,5.313 -1.537,6.746 0.219,1.425 0.969,2.279 1.083,3.364 0.115,1.092 -0.345,11.14 -0.397,15.881 -0.06,4.737 -0.972,12.163 -0.972,14.214 0,2.06 0.286,2.738 0.112,4.4 -0.178,1.657 -2.968,10.329 -3.996,12.847 -1.024,2.514 -2.115,7.021 -3.833,7.596 -1.71,0.576 -5.881,1.369 -7.874,1.255 -2,-0.114 -7.542,-1.255 -7.996,-1.087 -0.459,0.176 -1.714,1.324 -0.118,1.721 1.603,0.397 5.599,1.137 8.744,1.08 3.139,-0.056 5.707,0.52 7.818,-0.627 2.111,-1.139 4.114,-4.393 5.372,-7.602 1.25,-3.197 4.278,-9.357 4.278,-9.357 0,0 0.913,2.452 0.809,4.048 -0.125,1.608 -1.262,4.007 -0.979,4.91 0.289,0.922 1.257,2.577 1.833,3.723 0.568,1.136 1.54,1.822 1.484,2.335 -0.062,0.516 0,1.713 0,1.713 l 6.051,0.23 -0.972,-1.543 c 0,0 -0.742,-0.057 -1.254,-0.455 -0.519,-0.398 -3.083,-4.001 -3.369,-5.311 -0.286,-1.314 0.972,-2.004 1.254,-3.429 0.289,-1.431 1.714,-4.85 1.714,-5.821 0,-0.973 0.167,-2.345 0.167,-2.345 0,0 0.916,1.718 1.035,3.487 0.108,1.765 0.338,3.877 -0.174,4.564 -0.516,0.682 -1.484,1.539 -1.314,2.402 0.167,0.848 0.969,2.395 1.429,3.484 0.46,1.084 1.435,3.494 1.843,4.129 0.397,0.623 1.585,0.552 1.585,0.552 z"
       id="path5"
       inkscape:connector-curvature="0"
       style="fill:#739d3f" /></g></svg>